<svg width="214" height="60" viewBox="0 0 214 60" fill="none" xmlns="http://www.w3.org/2000/svg">
<rect x="3.80078" y="3.80957" width="206.24" height="52.35" rx="26.175" fill="#AB7A3E"/>
<rect x="0.5" y="0.5" width="212.84" height="58.96" rx="29.48" stroke="#AB7A3E"/>
<rect x="3.80078" y="3.80957" width="206.24" height="52.35" rx="26.175" fill="#AB7A3E"/>
<path d="M51.2085 36H49.154L52.2845 26.9318H54.7552L57.8812 36H55.8267L53.5552 29.004H53.4844L51.2085 36ZM51.0801 32.4356H55.933V33.9322H51.0801V32.4356ZM63.7103 36H60.4957V26.9318H63.7369C64.649 26.9318 65.4342 27.1134 66.0925 27.4764C66.7507 27.8366 67.257 28.3546 67.6112 29.0306C67.9684 29.7066 68.147 30.5154 68.147 31.4571C68.147 32.4017 67.9684 33.2134 67.6112 33.8924C67.257 34.5713 66.7478 35.0923 66.0836 35.4554C65.4224 35.8185 64.6313 36 63.7103 36ZM62.4129 34.3573H63.6306C64.1973 34.3573 64.6741 34.2569 65.0608 34.0562C65.4504 33.8525 65.7427 33.5381 65.9375 33.1131C66.1353 32.685 66.2341 32.133 66.2341 31.4571C66.2341 30.787 66.1353 30.2394 65.9375 29.8143C65.7427 29.3893 65.4519 29.0764 65.0652 28.8756C64.6785 28.6749 64.2018 28.5745 63.635 28.5745H62.4129V34.3573ZM72.1418 36H70.0873L73.2178 26.9318H75.6885L78.8145 36H76.76L74.4885 29.004H74.4177L72.1418 36ZM72.0134 32.4356H76.8663V33.9322H72.0134V32.4356ZM87.0302 26.9318H88.9474V32.8208C88.9474 33.482 88.7895 34.0606 88.4737 34.5565C88.1608 35.0524 87.7224 35.4391 87.1586 35.7166C86.5948 35.9911 85.938 36.1284 85.1882 36.1284C84.4355 36.1284 83.7772 35.9911 83.2134 35.7166C82.6496 35.4391 82.2112 35.0524 81.8983 34.5565C81.5854 34.0606 81.429 33.482 81.429 32.8208V26.9318H83.3462V32.657C83.3462 33.0024 83.4215 33.3094 83.5721 33.578C83.7256 33.8466 83.941 34.0577 84.2185 34.2112C84.496 34.3647 84.8192 34.4414 85.1882 34.4414C85.5601 34.4414 85.8834 34.3647 86.1579 34.2112C86.4354 34.0577 86.6494 33.8466 86.7999 33.578C86.9534 33.3094 87.0302 33.0024 87.0302 32.657V26.9318ZM98.0608 29.863C97.9988 29.6475 97.9118 29.4572 97.7996 29.2918C97.6874 29.1236 97.5502 28.9819 97.3878 28.8668C97.2284 28.7487 97.0454 28.6587 96.8387 28.5967C96.6351 28.5347 96.4092 28.5037 96.1613 28.5037C95.6978 28.5037 95.2905 28.6188 94.9392 28.8491C94.5909 29.0793 94.3193 29.4144 94.1245 29.8542C93.9297 30.2911 93.8323 30.8254 93.8323 31.4571C93.8323 32.0888 93.9282 32.626 94.1201 33.0688C94.3119 33.5116 94.5835 33.8496 94.9348 34.0828C95.2861 34.313 95.7008 34.4281 96.179 34.4281C96.6129 34.4281 96.9834 34.3514 97.2904 34.1979C97.6003 34.0414 97.8365 33.8215 97.9988 33.5381C98.1641 33.2547 98.2468 32.9197 98.2468 32.533L98.6364 32.5906H96.2986V31.1471H100.093V32.2895C100.093 33.0865 99.9249 33.7713 99.5884 34.344C99.2519 34.9137 98.7885 35.3535 98.1981 35.6635C97.6077 35.9705 96.9317 36.124 96.1701 36.124C95.32 36.124 94.5732 35.9365 93.9297 35.5616C93.2862 35.1838 92.7843 34.648 92.4242 33.9543C92.067 33.2577 91.8884 32.4312 91.8884 31.4748C91.8884 30.7397 91.9947 30.0844 92.2072 29.5088C92.4227 28.9302 92.7238 28.4402 93.1105 28.0388C93.4972 27.6373 93.9474 27.3318 94.461 27.1222C94.9746 26.9126 95.5311 26.8078 96.1303 26.8078C96.6439 26.8078 97.1221 26.8831 97.5649 27.0337C98.0077 27.1813 98.4003 27.3908 98.7427 27.6624C99.0881 27.934 99.37 28.2572 99.5884 28.6321C99.8069 29.004 99.9471 29.4144 100.009 29.863H98.0608ZM104.339 36H102.285L105.415 26.9318H107.886L111.012 36H108.958L106.686 29.004H106.615L104.339 36ZM104.211 32.4356H109.064V33.9322H104.211V32.4356ZM118.035 26.9318H120.4L122.897 33.0245H123.003L125.501 26.9318H127.865V36H126.005V30.0977H125.93L123.583 35.9557H122.317L119.97 30.0756H119.895V36H118.035V26.9318ZM130.968 36V26.9318H137.078V28.5126H132.885V30.6733H136.764V32.2541H132.885V34.4193H137.096V36H130.968ZM147.71 26.9318V36H146.054L142.109 30.2925H142.043V36H140.125V26.9318H141.808L145.722 32.6349H145.802V26.9318H147.71ZM152.735 26.9318V36H150.817V26.9318H152.735ZM161.436 26.9318H163.353V32.8208C163.353 33.482 163.195 34.0606 162.88 34.5565C162.567 35.0524 162.128 35.4391 161.565 35.7166C161.001 35.9911 160.344 36.1284 159.594 36.1284C158.841 36.1284 158.183 35.9911 157.619 35.7166C157.056 35.4391 156.617 35.0524 156.304 34.5565C155.991 34.0606 155.835 33.482 155.835 32.8208V26.9318H157.752V32.657C157.752 33.0024 157.827 33.3094 157.978 33.578C158.132 33.8466 158.347 34.0577 158.624 34.2112C158.902 34.3647 159.225 34.4414 159.594 34.4414C159.966 34.4414 160.289 34.3647 160.564 34.2112C160.841 34.0577 161.055 33.8466 161.206 33.578C161.359 33.3094 161.436 33.0024 161.436 32.657V26.9318Z" fill="#F5EEDD"/>
</svg>
