<svg width="36" height="36" viewBox="0 0 36 36" fill="none" xmlns="http://www.w3.org/2000/svg">
<path d="M30.756 5.22689C27.5117 1.9976 23.0299 0 18.079 0C8.17837 0 0.150759 7.98919 0.150759 17.8451C0.150759 21.1248 1.03963 24.1969 2.58943 26.8379L2.5436 26.7539L0 36L9.50263 33.5186C11.9763 34.886 14.9275 35.6903 18.0681 35.6903H18.0754C27.976 35.6867 36 27.6963 36 17.8415C36 12.916 33.9955 8.45738 30.7548 5.22809L30.756 5.22689ZM18.0754 32.6759H18.0693C15.2725 32.6759 12.6541 31.9076 10.4192 30.5714L10.4868 30.6086L9.94285 30.2881L4.30447 31.7611L5.80844 26.2881L5.45385 25.7275C4.02466 23.4922 3.17558 20.7683 3.17558 17.8463C3.17558 9.65666 9.84636 3.01681 18.0742 3.01681C26.302 3.01681 32.9728 9.65666 32.9728 17.8463C32.9728 26.036 26.3044 32.6759 18.0754 32.6759ZM26.2477 21.5702C25.8003 21.3469 23.598 20.2701 23.1879 20.12C22.7766 19.9712 22.4775 19.898 22.1784 20.3445C21.8817 20.7899 21.023 21.7935 20.7613 22.0912C20.5008 22.3902 20.2379 22.4262 19.7904 22.2041C18.4034 21.6447 17.2118 20.8992 16.1758 19.9808L16.1879 19.9916C15.2242 19.1032 14.3981 18.0864 13.7311 16.9652L13.6973 16.9028C13.4368 16.4574 13.6696 16.2161 13.8927 15.994C14.0941 15.7947 14.3414 15.473 14.5645 15.2137C14.7406 14.9988 14.8914 14.7527 15.0059 14.4886L15.0132 14.4682C15.065 14.3637 15.0952 14.2425 15.0952 14.1128C15.0952 13.9556 15.0506 13.8091 14.9734 13.6843L14.9758 13.6879C14.8624 13.4646 13.9675 11.2701 13.5948 10.377C13.2306 9.5078 12.8603 9.62665 12.5866 9.61224C12.326 9.60024 12.0269 9.59784 11.7278 9.59784C11.2514 9.60984 10.8281 9.82353 10.5362 10.1537L10.535 10.1561C9.56776 11.0696 8.96713 12.3577 8.96713 13.7851C8.96713 13.8163 8.96714 13.8487 8.96834 13.88V13.8752C9.12634 15.6363 9.78967 17.2173 10.81 18.5054L10.7955 18.4874C12.7301 21.3433 15.3087 23.6279 18.3347 25.1669L18.4481 25.2185C19.109 25.5162 19.9556 25.8343 20.8216 26.1068L21.0013 26.1561C21.5344 26.3241 22.1483 26.4214 22.7851 26.4214C23.1505 26.4214 23.5099 26.389 23.8573 26.3277L23.8199 26.3325C25.1092 26.0648 26.179 25.2905 26.8315 24.2329L26.8423 24.2125C27.0413 23.7731 27.1571 23.2605 27.1571 22.7215C27.1571 22.4994 27.1378 22.2821 27.1004 22.0708L27.104 22.0936C26.9931 21.9076 26.694 21.7971 26.2453 21.5726L26.2477 21.5702Z" fill="#BD9769"/>
</svg>
