<svg width="13" height="13" viewBox="0 0 13 13" fill="none" xmlns="http://www.w3.org/2000/svg">
<path fill-rule="evenodd" clip-rule="evenodd" d="M10.5625 3.25H2.4375C2.21325 3.25 2.03125 3.06841 2.03125 2.84375C2.03125 2.6195 2.21325 2.4375 2.4375 2.4375H10.5625C10.7867 2.4375 10.9688 2.6195 10.9688 2.84375C10.9688 3.06841 10.7867 3.25 10.5625 3.25ZM10.1562 11.375C10.1562 11.8235 9.79225 12.1875 9.34375 12.1875H3.65625C3.20775 12.1875 2.84375 11.8235 2.84375 11.375V4.0625H10.1562V11.375ZM5.28125 1.21875C5.28125 0.994094 5.46325 0.8125 5.6875 0.8125H7.3125C7.53675 0.8125 7.71875 0.994094 7.71875 1.21875V1.625H5.28125V1.21875ZM10.9688 1.625H8.53125V0.8125C8.53125 0.364 8.16725 0 7.71875 0H5.28125C4.83275 0 4.46875 0.364 4.46875 0.8125V1.625H2.03125C1.58275 1.625 1.21875 1.989 1.21875 2.4375V3.25C1.21875 3.6985 1.58275 4.0625 2.03125 4.0625V11.375C2.03125 12.2724 2.75884 13 3.65625 13H9.34375C10.2412 13 10.9688 12.2724 10.9688 11.375V4.0625C11.4172 4.0625 11.7812 3.6985 11.7812 3.25V2.4375C11.7812 1.989 11.4172 1.625 10.9688 1.625ZM6.5 11.375C6.72425 11.375 6.90625 11.1934 6.90625 10.9688V6.09375C6.90625 5.8695 6.72425 5.6875 6.5 5.6875C6.27575 5.6875 6.09375 5.8695 6.09375 6.09375V10.9688C6.09375 11.1934 6.27575 11.375 6.5 11.375ZM4.46875 11.375C4.693 11.375 4.875 11.1934 4.875 10.9688V6.09375C4.875 5.8695 4.693 5.6875 4.46875 5.6875C4.2445 5.6875 4.0625 5.8695 4.0625 6.09375V10.9688C4.0625 11.1934 4.2445 11.375 4.46875 11.375ZM8.53125 11.375C8.7555 11.375 8.9375 11.1934 8.9375 10.9688V6.09375C8.9375 5.8695 8.7555 5.6875 8.53125 5.6875C8.307 5.6875 8.125 5.8695 8.125 6.09375V10.9688C8.125 11.1934 8.307 11.375 8.53125 11.375Z" fill="#AB7A3E"/>
</svg>
