<svg width="20" height="20" viewBox="0 0 20 20" fill="none" xmlns="http://www.w3.org/2000/svg">
<path d="M7.5 9.375C7.15483 9.375 6.875 9.65483 6.875 10C6.875 10.3452 7.15483 10.625 7.5 10.625H12.5C12.8452 10.625 13.125 10.3452 13.125 10C13.125 9.65483 12.8452 9.375 12.5 9.375H7.5Z" fill="#AB7A3E"/>
<path fill-rule="evenodd" clip-rule="evenodd" d="M10.0007 18.959C14.9482 18.959 18.959 14.9482 18.959 10.0007C18.959 5.05307 14.9482 1.04232 10.0007 1.04232C5.05307 1.04232 1.04232 5.05307 1.04232 10.0007C1.04232 14.9482 5.05307 18.959 10.0007 18.959ZM17.709 10.0007C17.709 14.2578 14.2578 17.709 10.0007 17.709C5.74348 17.709 2.29232 14.2578 2.29232 10.0007C2.29232 5.74348 5.74348 2.29232 10.0007 2.29232C14.2578 2.29232 17.709 5.74348 17.709 10.0007Z" fill="#AB7A3E"/>
</svg>
