<svg width="36" height="36" viewBox="0 0 36 36" fill="none" xmlns="http://www.w3.org/2000/svg">
<g clip-path="url(#clip0_306_299)">
<path d="M18 0C8.05781 0 0 8.05781 0 18C0 27.9422 8.05781 36 18 36C27.9422 36 36 27.9422 36 18C36 8.05781 27.9422 0 18 0ZM29.2359 29.2289C27.7734 30.6914 26.0789 31.8375 24.1875 32.632C22.2328 33.4617 20.1516 33.8766 18 33.8766C15.8555 33.8766 13.7742 33.4547 11.8125 32.632C9.92109 31.8305 8.21953 30.6844 6.76406 29.2289C5.30156 27.7664 4.15547 26.0719 3.36094 24.1805C2.53125 22.2258 2.10938 20.1445 2.10938 18C2.10938 15.8555 2.53125 13.7742 3.35391 11.8125C4.15547 9.92109 5.30156 8.21953 6.75703 6.76406C8.22656 5.30156 9.92109 4.15547 11.8125 3.35391C13.7742 2.53125 15.8555 2.10938 18 2.10938C20.1445 2.10938 22.2258 2.53125 24.1875 3.35391C26.0789 4.15547 27.7805 5.30156 29.2359 6.75703C30.6984 8.21953 31.8445 9.91406 32.6391 11.8055C33.4688 13.7602 33.8836 15.8414 33.8836 17.993C33.8836 20.1375 33.4617 22.2188 32.6391 24.1805C31.8375 26.0719 30.6914 27.7734 29.2359 29.2289Z" fill="#BD9769"/>
<path d="M20.3762 11.8619C21.1004 11.8619 21.8738 12.0869 21.8738 12.0869L22.3379 9.33067C22.3379 9.33067 21.3535 8.99316 19.0051 8.99316C17.5637 8.99316 16.727 9.5416 16.1152 10.3502C15.5387 11.1166 15.5176 12.3471 15.5176 13.1416V14.9486H13.6543V17.6416H15.5176V26.9932H19.0051V17.6416H21.7684L21.9723 14.9486H19.0051V12.8463C19.0051 12.1221 19.652 11.8619 20.3762 11.8619Z" fill="#BD9769"/>
</g>
<defs>
<clipPath id="clip0_306_299">
<rect width="36" height="36" fill="white"/>
</clipPath>
</defs>
</svg>
