<svg width="36" height="36" viewBox="0 0 36 36" fill="none" xmlns="http://www.w3.org/2000/svg">
<g clip-path="url(#clip0_306_303)">
<path d="M18 0C8.05781 0 0 8.05781 0 18C0 27.9422 8.05781 36 18 36C27.9422 36 36 27.9422 36 18C36 8.05781 27.9422 0 18 0ZM29.2359 29.2289C27.7734 30.6914 26.0789 31.8375 24.1875 32.632C22.2328 33.4617 20.1516 33.8766 18 33.8766C15.8555 33.8766 13.7742 33.4547 11.8125 32.632C9.92109 31.8305 8.21953 30.6844 6.76406 29.2289C5.30156 27.7664 4.15547 26.0719 3.36094 24.1805C2.53125 22.2258 2.10938 20.1445 2.10938 18C2.10938 15.8555 2.53125 13.7742 3.35391 11.8125C4.15547 9.92109 5.30156 8.21953 6.75703 6.76406C8.22656 5.30156 9.92109 4.15547 11.8125 3.35391C13.7742 2.53125 15.8555 2.10938 18 2.10938C20.1445 2.10938 22.2258 2.53125 24.1875 3.35391C26.0789 4.15547 27.7805 5.30156 29.2359 6.75703C30.6984 8.21953 31.8445 9.91406 32.6391 11.8055C33.4688 13.7602 33.8836 15.8414 33.8836 17.993C33.8836 20.1375 33.4617 22.2188 32.6391 24.1805C31.8375 26.0719 30.6914 27.7734 29.2359 29.2289Z" fill="#BD9769"/>
<path d="M23.5273 9H12.4883C10.5688 9 9.00781 10.5609 9.00781 12.4805V16.1578V23.5266C9.00781 25.4461 10.5688 27.007 12.4883 27.007H23.5273C25.4469 27.007 27.0078 25.4461 27.0078 23.5266V16.1508V12.4734C27.0008 10.5609 25.4398 9 23.5273 9ZM24.5258 11.0742H24.9266V11.468V14.1258L21.882 14.1328L21.875 11.0813L24.5258 11.0742ZM15.4344 16.1508C16.0109 15.3563 16.9461 14.8289 18.0008 14.8289C19.0555 14.8289 19.9906 15.3492 20.5672 16.1508C20.9469 16.6711 21.1648 17.3109 21.1648 18C21.1648 19.7437 19.7445 21.1711 17.9938 21.1711C16.243 21.1711 14.8367 19.7437 14.8367 18C14.8367 17.3109 15.0617 16.6711 15.4344 16.1508ZM25.25 23.5195C25.25 24.4688 24.4766 25.2422 23.5273 25.2422H12.4883C11.5391 25.2422 10.7656 24.4688 10.7656 23.5195V16.1508H13.4516C13.2195 16.7203 13.0859 17.3461 13.0859 18C13.0859 20.7141 15.2938 22.9219 18.0078 22.9219C20.7219 22.9219 22.9297 20.7141 22.9297 18C22.9297 17.3461 22.7961 16.7203 22.5641 16.1508H25.25V23.5195Z" fill="#BD9769"/>
</g>
<defs>
<clipPath id="clip0_306_303">
<rect width="36" height="36" fill="white"/>
</clipPath>
</defs>
</svg>
