<?xml version="1.0" encoding="UTF-8"?>
<svg id="Layer_2" data-name="Layer 2" xmlns="http://www.w3.org/2000/svg" viewBox="0 0 414.28 177.46">
  <defs>
    <style>
      .cls-1 {
        fill: #353435;
      }

      .cls-2 {
        fill: #f7a17a;
      }
    </style>
  </defs>
  <g id="Layer_1-2" data-name="Layer 1">
    <g>
      <g>
        <path class="cls-1" d="M27.82,31.18v95.81h-10.65V31.18H0v-10.65h45v10.65h-17.18Z"/>
        <path class="cls-1" d="M111.87,20.53v77.24c0,4.07-.78,7.88-2.35,11.43-1.57,3.55-3.69,6.64-6.35,9.28-2.67,2.64-5.76,4.72-9.28,6.23-3.52,1.51-7.24,2.27-11.14,2.27s-7.72-.77-11.26-2.31c-3.55-1.54-6.66-3.64-9.33-6.31-2.67-2.67-4.77-5.78-6.31-9.33-1.54-3.55-2.31-7.3-2.31-11.26V20.53h10.65v77.24c0,2.53.5,4.92,1.49,7.18.99,2.26,2.32,4.22,4,5.9,1.68,1.68,3.64,3.01,5.9,4,2.26.99,4.65,1.49,7.18,1.49s4.92-.5,7.18-1.49c2.26-.99,4.22-2.32,5.9-4s3-3.64,3.96-5.9c.96-2.26,1.44-4.65,1.44-7.18V20.53h10.65Z"/>
        <path class="cls-1" d="M198.2,20.53l-60.4,53.23,60.4,53.23h-14.11l-53.05-44.81v44.81h-10.65V20.53h10.65v44.81l53.05-44.81h14.11Z"/>
        <path class="cls-1" d="M234.55,31.18v95.81h-10.65V31.18h-17.18v-10.65h45v10.65h-17.18Z"/>
        <path class="cls-1" d="M260.25,20.53h62.47v10.65h-51.83v37.22h51.83v10.65h-51.83v37.3h51.83v10.65h-62.47V20.53Z"/>
        <path class="cls-1" d="M369.28,20.53h10.65v95.81h34.35v10.65h-45V20.53Z"/>
        <g>
          <polygon class="cls-1" points="358.23 90.48 349.29 94.1 349.29 120.68 358.23 122.38 358.23 126.99 333.78 126.99 333.78 122.38 342.72 120.68 342.61 94.1 333.78 90.48 337.01 20.53 355.01 20.53 358.23 90.48"/>
          <path class="cls-2" d="M352.91,41.79h-6.06c.07.22.11.45.11.69,0,1.33-1.08,2.41-2.41,2.41s-2.41-1.08-2.41-2.41c0-.24.05-.47.11-.69h-3.15l-2.09,45.45,6.5,2.67h4.92l6.58-2.67-2.09-45.45ZM345.59,54.05c-.5,0-.9-.4-.9-.9s.4-.9.9-.9.9.4.9.9-.4.9-.9.9ZM348.07,50.08c-.99,0-1.8-.81-1.8-1.8s.81-1.8,1.8-1.8,1.8.81,1.8,1.8-.81,1.8-1.8,1.8Z"/>
          <rect class="cls-2" x="345.1" width="2.01" height="10.92"/>
          <rect class="cls-2" x="351.68" y=".48" width="2.01" height="10.84" transform="translate(9.64 -76.22) rotate(12.5)"/>
          <rect class="cls-2" x="338.51" y=".48" width="2.01" height="10.84" transform="translate(672.25 -61.85) rotate(167.5)"/>
        </g>
      </g>
      <g>
        <path class="cls-2" d="M53.52,153.38h9.35c4.34,0,7.33,3.33,7.33,7.37s-2.96,7.5-7.33,7.5h-6.49v8.68h-2.86v-23.54ZM62.91,165.55c2.86,0,4.41-2.22,4.41-4.81s-1.92-4.67-4.41-4.67h-6.52v9.48h6.52Z"/>
        <path class="cls-2" d="M80.87,153.38h5.48l6.76,23.54h-2.96l-2.35-8.24h-8.37l-2.39,8.24h-2.96l6.79-23.54ZM87.03,165.99l-3.4-11.81h-.03l-3.4,11.81h6.83Z"/>
        <path class="cls-2" d="M100.85,153.38h9.18c4.34,0,7.33,2.99,7.33,7.03s-2.72,6.93-6.79,7.2c.03,3.8,3.09,6.49,7.1,6.49l-.03,2.82c-5.65,0-9.89-4.04-9.92-9.32h-4v9.32h-2.86v-23.54ZM110.17,165.01c2.83,0,4.51-2.05,4.51-4.61s-2.05-4.34-4.51-4.34h-6.46v8.95h6.46Z"/>
        <path class="cls-2" d="M130.39,156.07h-7v-2.69h16.85v2.69h-7v20.85h-2.86v-20.85Z"/>
        <path class="cls-2" d="M151.04,164.65l-5.08-11.27h2.96l4.24,9.62c.27.64.71.94,1.38.94s1.11-.3,1.38-.94l4.24-9.62h2.96l-5.08,11.27c-.5,1.11-1.08,1.92-2.09,1.92v10.36h-2.83v-10.36c-1.01,0-1.58-.81-2.08-1.92Z"/>
        <path class="cls-2" d="M183,153.38h8c3.56,0,6.36,1.92,6.36,5.89,0,1.65-.77,3.16-2.02,4.24,2.32,1.21,4.07,3.6,4.07,6.39,0,4.04-2.99,7.03-7.33,7.03h-9.62l.54-23.54ZM192.08,174.23c2.52,0,4.47-1.48,4.47-4.34s-1.58-4.64-4.47-4.64h-6.49l-.2,8.98h6.69ZM190.33,162.66c2.72,0,4.17-1.04,4.17-3.4s-1.45-3.2-4.17-3.2h-4.54l-.13,6.59h4.67Z"/>
        <path class="cls-2" d="M205.81,165.18c0-6.86,5.45-12.31,12.31-12.31s12.28,5.45,12.28,12.31-5.45,12.28-12.28,12.28-12.31-5.45-12.31-12.28ZM218.12,174.77c5.31,0,9.52-4.2,9.52-9.59s-4.2-9.62-9.52-9.62-9.55,4.14-9.55,9.62,4.24,9.59,9.55,9.59Z"/>
        <path class="cls-2" d="M238.13,165.18c0-6.86,5.45-12.31,12.31-12.31s12.28,5.45,12.28,12.31-5.45,12.28-12.28,12.28-12.31-5.45-12.31-12.28ZM250.44,174.77c5.31,0,9.52-4.2,9.52-9.59s-4.2-9.62-9.52-9.62-9.55,4.14-9.55,9.62,4.24,9.59,9.55,9.59Z"/>
        <path class="cls-2" d="M271.57,170.56h2.69c0,2.69,1.65,4.27,4.84,4.27,3.03,0,4.61-1.55,4.61-3.8s-2.15-2.93-5.52-3.7c-4.94-1.11-8.07-2.86-8.07-7.3,0-3.94,3.73-7.16,8.74-7.16s8.37,3.26,8.37,7.4h-2.69c0-2.86-1.98-4.78-5.68-4.78s-6.05,1.95-6.05,4.54c0,2.86,1.58,3.73,5.99,4.74,3.6.84,7.6,2.15,7.6,6.26,0,3.53-2.96,6.42-7.3,6.42s-7.53-2.89-7.53-6.9Z"/>
        <path class="cls-2" d="M299.96,156.07h-7v-2.69h16.85v2.69h-7v20.85h-2.86v-20.85Z"/>
        <path class="cls-2" d="M317.39,153.38h16.18v2.69h-13.32v9.11h9.62v2.69h-9.62v6.36h13.32v2.69h-16.18v-23.54Z"/>
        <path class="cls-2" d="M341.81,153.38h9.18c4.34,0,7.33,2.99,7.33,7.03s-2.72,6.93-6.79,7.2c.03,3.8,3.09,6.49,7.1,6.49l-.03,2.82c-5.65,0-9.89-4.04-9.92-9.32h-4v9.32h-2.86v-23.54ZM351.12,165.01c2.83,0,4.51-2.05,4.51-4.61s-2.05-4.34-4.51-4.34h-6.46v8.95h6.46Z"/>
      </g>
    </g>
  </g>
</svg>