<svg width="415" height="178" viewBox="0 0 415 178" fill="none" xmlns="http://www.w3.org/2000/svg">
<g clip-path="url(#clip0_473_343)">
<path d="M27.82 31.1803V126.99H17.17V31.1803H0V20.5303H45V31.1803H27.82Z" fill="#353435"/>
<path d="M111.869 20.5303V97.7703C111.869 101.84 111.089 105.65 109.519 109.2C107.949 112.75 105.829 115.84 103.169 118.48C100.499 121.12 97.4091 123.2 93.8891 124.71C90.3691 126.22 86.6491 126.98 82.7491 126.98C78.8491 126.98 75.0291 126.21 71.4891 124.67C67.9391 123.13 64.8291 121.03 62.1591 118.36C59.4891 115.69 57.3891 112.58 55.8491 109.03C54.3091 105.48 53.5391 101.73 53.5391 97.7703V20.5303H64.1891V97.7703C64.1891 100.3 64.6891 102.69 65.6791 104.95C66.6691 107.21 67.9991 109.17 69.6791 110.85C71.3591 112.53 73.3191 113.86 75.5791 114.85C77.8391 115.84 80.2291 116.34 82.7591 116.34C85.2891 116.34 87.6791 115.84 89.9391 114.85C92.1991 113.86 94.1591 112.53 95.8391 110.85C97.5191 109.17 98.8391 107.21 99.7991 104.95C100.759 102.69 101.239 100.3 101.239 97.7703V20.5303H111.889H111.869Z" fill="#353435"/>
<path d="M198.201 20.5303L137.801 73.7603L198.201 126.99H184.091L131.041 82.1803V126.99H120.391V20.5303H131.041V65.3403L184.091 20.5303H198.201Z" fill="#353435"/>
<path d="M234.551 31.1803V126.99H223.901V31.1803H206.721V20.5303H251.721V31.1803H234.541H234.551Z" fill="#353435"/>
<path d="M260.25 20.5303H322.72V31.1803H270.89V68.4003H322.72V79.0503H270.89V116.35H322.72V127H260.25V20.5303Z" fill="#353435"/>
<path d="M369.279 20.5303H379.929V116.34H414.279V126.99H369.279V20.5303Z" fill="#353435"/>
<path d="M358.229 90.4803L349.289 94.1003V120.68L358.229 122.38V126.99H333.779V122.38L342.719 120.68L342.609 94.1003L333.779 90.4803L337.009 20.5303H355.009L358.229 90.4803Z" fill="#353435"/>
<path d="M352.91 41.79H346.85C346.92 42.01 346.96 42.24 346.96 42.48C346.96 43.81 345.88 44.89 344.55 44.89C343.22 44.89 342.14 43.81 342.14 42.48C342.14 42.24 342.19 42.01 342.25 41.79H339.1L337.01 87.24L343.51 89.91H348.43L355.01 87.24L352.92 41.79H352.91ZM345.59 54.05C345.09 54.05 344.69 53.65 344.69 53.15C344.69 52.65 345.09 52.25 345.59 52.25C346.09 52.25 346.49 52.65 346.49 53.15C346.49 53.65 346.09 54.05 345.59 54.05ZM348.07 50.08C347.08 50.08 346.27 49.27 346.27 48.28C346.27 47.29 347.08 46.48 348.07 46.48C349.06 46.48 349.87 47.29 349.87 48.28C349.87 49.27 349.06 50.08 348.07 50.08Z" fill="#F7A17A"/>
<path d="M347.11 0H345.1V10.92H347.11V0Z" fill="#F7A17A"/>
<path d="M354.841 0.801257L352.879 0.366211L350.533 10.9493L352.495 11.3843L354.841 0.801257Z" fill="#F7A17A"/>
<path d="M339.698 11.3833L341.66 10.9482L339.314 0.365193L337.352 0.800232L339.698 11.3833Z" fill="#F7A17A"/>
<path d="M53.5195 153.38H62.8695C67.2095 153.38 70.1995 156.71 70.1995 160.75C70.1995 164.79 67.2395 168.25 62.8695 168.25H56.3795V176.93H53.5195V153.39V153.38ZM62.9095 165.55C65.7695 165.55 67.3195 163.33 67.3195 160.74C67.3195 158.15 65.3995 156.07 62.9095 156.07H56.3895V165.55H62.9095Z" fill="#F7A17A"/>
<path d="M80.8701 153.38H86.3501L93.1101 176.92H90.1501L87.8001 168.68H79.4301L77.0401 176.92H74.0801L80.8701 153.38ZM87.0301 165.99L83.6301 154.18H83.6001L80.2001 165.99H87.0301Z" fill="#F7A17A"/>
<path d="M100.85 153.38H110.03C114.37 153.38 117.36 156.37 117.36 160.41C117.36 164.45 114.64 167.34 110.57 167.61C110.6 171.41 113.66 174.1 117.67 174.1L117.64 176.92C111.99 176.92 107.75 172.88 107.72 167.6H103.72V176.92H100.86V153.38H100.85ZM110.17 165.01C113 165.01 114.68 162.96 114.68 160.4C114.68 157.84 112.63 156.06 110.17 156.06H103.71V165.01H110.17Z" fill="#F7A17A"/>
<path d="M130.389 156.07H123.389V153.38H140.239V156.07H133.239V176.92H130.379V156.07H130.389Z" fill="#F7A17A"/>
<path d="M151.039 164.65L145.959 153.38H148.919L153.159 163C153.429 163.64 153.869 163.94 154.539 163.94C155.209 163.94 155.649 163.64 155.919 163L160.159 153.38H163.119L158.039 164.65C157.539 165.76 156.959 166.57 155.949 166.57V176.93H153.119V166.57C152.109 166.57 151.539 165.76 151.039 164.65Z" fill="#F7A17A"/>
<path d="M182.999 153.38H190.999C194.559 153.38 197.359 155.3 197.359 159.27C197.359 160.92 196.589 162.43 195.339 163.51C197.659 164.72 199.409 167.11 199.409 169.9C199.409 173.94 196.419 176.93 192.079 176.93H182.459L182.999 153.39V153.38ZM192.079 174.23C194.599 174.23 196.549 172.75 196.549 169.89C196.549 167.03 194.969 165.25 192.079 165.25H185.589L185.389 174.23H192.079ZM190.329 162.66C193.049 162.66 194.499 161.62 194.499 159.26C194.499 156.9 193.049 156.06 190.329 156.06H185.789L185.659 162.65H190.329V162.66Z" fill="#F7A17A"/>
<path d="M205.809 165.18C205.809 158.32 211.259 152.87 218.119 152.87C224.979 152.87 230.399 158.32 230.399 165.18C230.399 172.04 224.949 177.46 218.119 177.46C211.289 177.46 205.809 172.01 205.809 165.18ZM218.119 174.77C223.429 174.77 227.639 170.57 227.639 165.18C227.639 159.79 223.439 155.56 218.119 155.56C212.799 155.56 208.569 159.7 208.569 165.18C208.569 170.66 212.809 174.77 218.119 174.77Z" fill="#F7A17A"/>
<path d="M238.129 165.18C238.129 158.32 243.579 152.87 250.439 152.87C257.299 152.87 262.719 158.32 262.719 165.18C262.719 172.04 257.269 177.46 250.439 177.46C243.609 177.46 238.129 172.01 238.129 165.18ZM250.439 174.77C255.749 174.77 259.959 170.57 259.959 165.18C259.959 159.79 255.759 155.56 250.439 155.56C245.119 155.56 240.889 159.7 240.889 165.18C240.889 170.66 245.129 174.77 250.439 174.77Z" fill="#F7A17A"/>
<path d="M271.569 170.56H274.259C274.259 173.25 275.909 174.83 279.099 174.83C282.129 174.83 283.709 173.28 283.709 171.03C283.709 168.78 281.559 168.1 278.189 167.33C273.249 166.22 270.119 164.47 270.119 160.03C270.119 156.09 273.849 152.87 278.859 152.87C283.869 152.87 287.229 156.13 287.229 160.27H284.539C284.539 157.41 282.559 155.49 278.859 155.49C275.159 155.49 272.809 157.44 272.809 160.03C272.809 162.89 274.389 163.76 278.799 164.77C282.399 165.61 286.399 166.92 286.399 171.03C286.399 174.56 283.439 177.45 279.099 177.45C274.759 177.45 271.569 174.56 271.569 170.55V170.56Z" fill="#F7A17A"/>
<path d="M299.959 156.07H292.959V153.38H309.809V156.07H302.809V176.92H299.949V156.07H299.959Z" fill="#F7A17A"/>
<path d="M317.389 153.38H333.569V156.07H320.249V165.18H329.869V167.87H320.249V174.23H333.569V176.92H317.389V153.38Z" fill="#F7A17A"/>
<path d="M341.809 153.38H350.989C355.329 153.38 358.319 156.37 358.319 160.41C358.319 164.45 355.599 167.34 351.529 167.61C351.559 171.41 354.619 174.1 358.629 174.1L358.599 176.92C352.949 176.92 348.709 172.88 348.679 167.6H344.679V176.92H341.819V153.38H341.809ZM351.119 165.01C353.949 165.01 355.629 162.96 355.629 160.4C355.629 157.84 353.579 156.06 351.119 156.06H344.659V165.01H351.119Z" fill="#F7A17A"/>
</g>
<defs>
<clipPath id="clip0_473_343">
<rect width="414.28" height="177.46" fill="white"/>
</clipPath>
</defs>
</svg>
