<svg width="153" height="49" viewBox="0 0 153 49" fill="none" xmlns="http://www.w3.org/2000/svg">
<g clip-path="url(#clip0_324_392)">
<path d="M45.8118 23.7145V1.00326H41.4506V24.471H31.2033V1.00326H26.4075V23.7145C26.4075 26.4318 28.4766 28.601 30.986 28.601H41.2351C43.7445 28.601 45.8118 26.4318 45.8118 23.7145Z" fill="#AB7A3E"/>
<path d="M1.00743 1.21929V5.13325H8.30518L8.19558 28.601H13.2162V5.13325H20.1944V1.21929H1.00743Z" fill="#AB7A3E"/>
<path d="M75.7803 1.21944V5.13341H83.078L82.9685 28.6012H87.989V5.13341H94.9673V1.21944H75.7803Z" fill="#AB7A3E"/>
<path d="M116.94 4.90939H116.948L116.94 4.917V4.90939H106.258V12.5133H113.889V16.5352H106.366V24.687H116.94V28.3848H101.455V1.21944H116.94V4.90939Z" fill="#AB7A3E"/>
<path d="M129.448 1H124.429V28.3817H129.448V1Z" fill="#AB7A3E"/>
<path d="M141.146 5.33467V12.9386L141.253 16.9605V25.1123H151.828V28.8101H136.342V1.64472H141.146V5.33467Z" fill="#AB7A3E"/>
<path d="M45.8118 23.7145V1.00326H41.4506V24.471H31.2033V1.00326H26.4075V23.7145C26.4075 26.4318 28.4766 28.601 30.986 28.601H41.2351C43.7445 28.601 45.8118 26.4318 45.8118 23.7145Z" fill="#AB7A3E"/>
<path d="M1.00743 1.21929V5.13325H8.30518L8.19558 28.601H13.2162V5.13325H20.1944V1.21929H1.00743Z" fill="#AB7A3E"/>
<path d="M75.7803 1.21944V5.13341H83.078L82.9685 28.6012H87.989V5.13341H94.9673V1.21944H75.7803Z" fill="#AB7A3E"/>
<path d="M116.94 4.90939H116.948L116.94 4.917V4.90939H106.258V12.5133H113.889V16.5352H106.366V24.687H116.94V28.3848H101.455V1.21944H116.94V4.90939Z" fill="#AB7A3E"/>
<path d="M129.448 1H124.429V28.3817H129.448V1Z" fill="#AB7A3E"/>
<path d="M141.146 5.33467V12.9386L141.253 16.9605V25.1123H151.828V28.8101H136.342V1.64472H141.146V5.33467Z" fill="#AB7A3E"/>
<path d="M57 1.64472H51.9813V29.0265H57V1.64472Z" fill="#AB7A3E"/>
<path d="M57 1.64472H51.9813V29.0265H57V1.64472Z" fill="#AB7A3E"/>
<path d="M12.3168 45.9502V37.6593H15.4259C16.0629 37.6593 16.5972 37.778 17.0291 38.0155C17.4636 38.253 17.7915 38.5796 18.0128 38.9952C18.2368 39.4081 18.3488 39.8778 18.3488 40.404C18.3488 40.9357 18.2368 41.408 18.0128 41.8209C17.7888 42.2339 17.4582 42.5591 17.021 42.7966C16.5838 43.0314 16.0453 43.1488 15.4057 43.1488H13.3451V41.914H15.2033C15.5757 41.914 15.8807 41.8493 16.1182 41.7197C16.3557 41.5902 16.5311 41.4121 16.6445 41.1854C16.7605 40.9586 16.8186 40.6982 16.8186 40.404C16.8186 40.1099 16.7605 39.8508 16.6445 39.6268C16.5311 39.4028 16.3543 39.2287 16.1141 39.1045C15.8766 38.9777 15.5703 38.9143 15.1952 38.9143H13.8188V45.9502H12.3168ZM22.6501 45.9502H21.0469L23.9657 37.6593H25.8199L28.7427 45.9502H27.1396L24.9252 39.3596H24.8604L22.6501 45.9502ZM22.7027 42.6994H27.0748V43.9058H22.7027V42.6994ZM32.6908 45.9502V37.6593H35.7998C36.4368 37.6593 36.9712 37.7699 37.403 37.9912C37.8375 38.2126 38.1654 38.5229 38.3867 38.9224C38.6107 39.3191 38.7227 39.7819 38.7227 40.3109C38.7227 40.8426 38.6094 41.3041 38.3827 41.6954C38.1587 42.0841 37.828 42.385 37.3908 42.5982C36.9536 42.8087 36.4165 42.914 35.7796 42.914H33.5652V41.6671H35.5772C35.9496 41.6671 36.2546 41.6158 36.4921 41.5133C36.7296 41.408 36.905 41.2555 37.0184 41.0558C37.1344 40.8534 37.1925 40.6051 37.1925 40.3109C37.1925 40.0167 37.1344 39.7657 37.0184 39.5579C36.9023 39.3474 36.7256 39.1882 36.4881 39.0802C36.2506 38.9696 35.9442 38.9143 35.5691 38.9143H34.1927V45.9502H32.6908ZM36.9739 42.1934L39.0263 45.9502H37.3503L35.3343 42.1934H36.9739ZM42.5969 38.9183V37.6593H49.2118V38.9183H46.6492V45.9502H45.1594V38.9183H42.5969ZM52.7762 37.6593H54.4725L56.5007 41.327H56.5816L58.6098 37.6593H60.3061L57.2901 42.8573V45.9502H55.7922V42.8573L52.7762 37.6593ZM69.9095 45.9502V37.6593H73.0834C73.6825 37.6593 74.1804 37.7537 74.5772 37.9427C74.9766 38.1289 75.2748 38.3839 75.4718 38.7078C75.6716 39.0317 75.7714 39.3987 75.7714 39.8089C75.7714 40.1463 75.7067 40.4351 75.5771 40.6753C75.4476 40.9128 75.2735 41.1057 75.0549 41.2542C74.8363 41.4026 74.592 41.5092 74.3221 41.574V41.655C74.6163 41.6711 74.8983 41.7616 75.1682 41.9262C75.4408 42.0881 75.6635 42.3175 75.8362 42.6144C76.0089 42.9113 76.0953 43.2702 76.0953 43.6912C76.0953 44.1204 75.9914 44.5063 75.7836 44.8491C75.5758 45.1891 75.2627 45.4577 74.8444 45.6547C74.426 45.8517 73.8998 45.9502 73.2655 45.9502H69.9095ZM71.4114 44.6952H73.0267C73.5718 44.6952 73.9645 44.5913 74.2047 44.3835C74.4476 44.173 74.5691 43.9031 74.5691 43.5738C74.5691 43.3282 74.5084 43.1069 74.3869 42.9099C74.2655 42.7102 74.0927 42.5537 73.8687 42.4403C73.6447 42.3243 73.3775 42.2662 73.0672 42.2662H71.4114V44.6952ZM71.4114 41.1854H72.8971C73.1562 41.1854 73.3897 41.1381 73.5975 41.0437C73.8053 40.9465 73.9686 40.8102 74.0873 40.6348C74.2088 40.4567 74.2695 40.2461 74.2695 40.0032C74.2695 39.6821 74.1562 39.4176 73.9294 39.2098C73.7054 39.002 73.3721 38.8981 72.9295 38.8981H71.4114V41.1854ZM87.6663 41.8047C87.6663 42.6981 87.4989 43.4632 87.1643 44.1001C86.8323 44.7344 86.3789 45.2202 85.804 45.5575C85.2319 45.8949 84.5828 46.0635 83.8568 46.0635C83.1308 46.0635 82.4804 45.8949 81.9055 45.5575C81.3334 45.2175 80.88 44.7303 80.5453 44.0961C80.2133 43.4591 80.0474 42.6954 80.0474 41.8047C80.0474 40.9114 80.2133 40.1476 80.5453 39.5134C80.88 38.8765 81.3334 38.3893 81.9055 38.052C82.4804 37.7146 83.1308 37.5459 83.8568 37.5459C84.5828 37.5459 85.2319 37.7146 85.804 38.052C86.3789 38.3893 86.8323 38.8765 87.1643 39.5134C87.4989 40.1476 87.6663 40.9114 87.6663 41.8047ZM86.1562 41.8047C86.1562 41.1759 86.0577 40.6456 85.8607 40.2138C85.6664 39.7792 85.3965 39.4513 85.0511 39.23C84.7056 39.006 84.3075 38.894 83.8568 38.894C83.4061 38.894 83.008 39.006 82.6626 39.23C82.3171 39.4513 82.0459 39.7792 81.8489 40.2138C81.6545 40.6456 81.5574 41.1759 81.5574 41.8047C81.5574 42.4336 81.6545 42.9653 81.8489 43.3998C82.0459 43.8316 82.3171 44.1595 82.6626 44.3835C83.008 44.6048 83.4061 44.7155 83.8568 44.7155C84.3075 44.7155 84.7056 44.6048 85.0511 44.3835C85.3965 44.1595 85.6664 43.8316 85.8607 43.3998C86.0577 42.9653 86.1562 42.4336 86.1562 41.8047ZM99.3506 41.8047C99.3506 42.6981 99.1832 43.4632 98.8486 44.1001C98.5166 44.7344 98.0632 45.2202 97.4884 45.5575C96.9162 45.8949 96.2671 46.0635 95.5411 46.0635C94.8151 46.0635 94.1647 45.8949 93.5898 45.5575C93.0177 45.2175 92.5643 44.7303 92.2296 44.0961C91.8977 43.4591 91.7317 42.6954 91.7317 41.8047C91.7317 40.9114 91.8977 40.1476 92.2296 39.5134C92.5643 38.8765 93.0177 38.3893 93.5898 38.052C94.1647 37.7146 94.8151 37.5459 95.5411 37.5459C96.2671 37.5459 96.9162 37.7146 97.4884 38.052C98.0632 38.3893 98.5166 38.8765 98.8486 39.5134C99.1832 40.1476 99.3506 40.9114 99.3506 41.8047ZM97.8406 41.8047C97.8406 41.1759 97.742 40.6456 97.545 40.2138C97.3507 39.7792 97.0808 39.4513 96.7354 39.23C96.3899 39.006 95.9918 38.894 95.5411 38.894C95.0904 38.894 94.6923 39.006 94.3469 39.23C94.0014 39.4513 93.7302 39.7792 93.5332 40.2138C93.3389 40.6456 93.2417 41.1759 93.2417 41.8047C93.2417 42.4336 93.3389 42.9653 93.5332 43.3998C93.7302 43.8316 94.0014 44.1595 94.3469 44.3835C94.6923 44.6048 95.0904 44.7155 95.5411 44.7155C95.9918 44.7155 96.3899 44.6048 96.7354 44.3835C97.0808 44.1595 97.3507 43.8316 97.545 43.3998C97.742 42.9653 97.8406 42.4336 97.8406 41.8047ZM108.132 39.9385C108.094 39.5849 107.935 39.3096 107.655 39.1126C107.377 38.9156 107.015 38.8171 106.57 38.8171C106.257 38.8171 105.988 38.8643 105.764 38.9588C105.54 39.0532 105.369 39.1814 105.25 39.3434C105.131 39.5053 105.07 39.6902 105.068 39.898C105.068 40.0707 105.107 40.2205 105.185 40.3474C105.266 40.4742 105.375 40.5822 105.513 40.6712C105.651 40.7576 105.803 40.8305 105.97 40.8898C106.138 40.9492 106.306 40.9991 106.477 41.0396L107.254 41.2339C107.567 41.3068 107.868 41.4053 108.157 41.5295C108.448 41.6536 108.708 41.8101 108.938 41.9991C109.17 42.188 109.353 42.416 109.488 42.6832C109.623 42.9504 109.691 43.2635 109.691 43.6224C109.691 44.1082 109.567 44.536 109.318 44.9057C109.07 45.2728 108.711 45.5602 108.242 45.768C107.775 45.9731 107.209 46.0757 106.545 46.0757C105.9 46.0757 105.34 45.9758 104.865 45.7761C104.393 45.5764 104.023 45.2849 103.756 44.9017C103.492 44.5184 103.349 44.0515 103.327 43.501H104.805C104.826 43.7898 104.915 44.03 105.072 44.2216C105.228 44.4132 105.432 44.5562 105.683 44.6507C105.937 44.7452 106.22 44.7924 106.533 44.7924C106.86 44.7924 107.146 44.7438 107.391 44.6466C107.64 44.5468 107.834 44.4091 107.974 44.2337C108.115 44.0556 108.186 43.8478 108.189 43.6103C108.186 43.3944 108.123 43.2162 107.999 43.0759C107.875 42.9329 107.7 42.8141 107.476 42.7197C107.255 42.6225 106.996 42.5361 106.699 42.4606L105.756 42.2177C105.073 42.0422 104.533 41.7764 104.137 41.4202C103.743 41.0612 103.546 40.5849 103.546 39.9911C103.546 39.5026 103.678 39.0748 103.942 38.7078C104.209 38.3407 104.572 38.056 105.031 37.8536C105.49 37.6485 106.01 37.5459 106.59 37.5459C107.178 37.5459 107.694 37.6485 108.136 37.8536C108.582 38.056 108.931 38.3381 109.185 38.6997C109.439 39.0586 109.569 39.4716 109.577 39.9385H108.132ZM113.521 38.9183V37.6593H120.136V38.9183H117.574V45.9502H116.084V38.9183H113.521ZM124.268 45.9502V37.6593H129.66V38.9183H125.77V41.1692H129.381V42.4282H125.77V44.6912H129.692V45.9502H124.268ZM134.048 45.9502V37.6593H137.157C137.794 37.6593 138.329 37.7699 138.76 37.9912C139.195 38.2126 139.523 38.5229 139.744 38.9224C139.968 39.3191 140.08 39.7819 140.08 40.3109C140.08 40.8426 139.967 41.3041 139.74 41.6954C139.516 42.0841 139.186 42.385 138.748 42.5982C138.311 42.8087 137.774 42.914 137.137 42.914H134.923V41.6671H136.935C137.307 41.6671 137.612 41.6158 137.85 41.5133C138.087 41.408 138.263 41.2555 138.376 41.0558C138.492 40.8534 138.55 40.6051 138.55 40.3109C138.55 40.0167 138.492 39.7657 138.376 39.5579C138.26 39.3474 138.083 39.1882 137.846 39.0802C137.608 38.9696 137.302 38.9143 136.927 38.9143H135.55V45.9502H134.048ZM138.331 42.1934L140.384 45.9502H138.708L136.692 42.1934H138.331Z" fill="#AB7A3E"/>
<path d="M64.6309 1.27832L68.3698 4.59796L56.3596 18.1254L52.6206 14.8057L64.6309 1.27832Z" fill="#AB7A3E"/>
<path d="M70.625 25.3594L67.209 29.0105L53.9995 16.6514L57.4155 13.0003L70.625 25.3594Z" fill="#AB7A3E"/>
</g>
<defs>
<clipPath id="clip0_324_392">
<rect width="153" height="49" fill="white"/>
</clipPath>
</defs>
</svg>
